HIERARCHY
ROOT Hips
{
	OFFSET 0.00000 0.00000 0.00000
	CHANNELS 6 Xposition Yposition Zposition Zrotation Yrotation Xrotation 
	JOINT LHipJoint
	{
		OFFSET 0 0 0
		CHANNELS 3 Zrotation Yrotation Xrotation
		JOINT LeftUpLeg
		{
			OFFSET 1.29432 -1.88279 0.59910
			CHANNELS 3 Zrotation Yrotation Xrotation
			JOINT LeftLeg
			{
				OFFSET 2.63039 -7.22694 0.00000
				CHANNELS 3 Zrotation Yrotation Xrotation
				JOINT LeftFoot
				{
					OFFSET 2.70674 -7.43672 0.00000
					CHANNELS 3 Zrotation Yrotation Xrotation
					JOINT LeftToeBase
					{
						OFFSET 0.15066 -0.41394 2.09027
						CHANNELS 3 Zrotation Yrotation Xrotation
						End Site
						{
							OFFSET 0.00000 -0.00000 1.07518
						}
					}
				}
			}
		}
	}
	JOINT RHipJoint
	{
		OFFSET 0 0 0
		CHANNELS 3 Zrotation Yrotation Xrotation
		JOINT RightUpLeg
		{
			OFFSET -1.37068 -1.88279 0.59910
			CHANNELS 3 Zrotation Yrotation Xrotation
			JOINT RightLeg
			{
				OFFSET -2.57023 -7.06166 0.00000
				CHANNELS 3 Zrotation Yrotation Xrotation
				JOINT RightFoot
				{
					OFFSET -2.76461 -7.59570 0.00000
					CHANNELS 3 Zrotation Yrotation Xrotation
					JOINT RightToeBase
					{
						OFFSET -0.24175 -0.64785 2.19719
						CHANNELS 3 Zrotation Yrotation Xrotation
						End Site
						{
							OFFSET -0.00000 -0.00000 1.14803
						}
					}
				}
			}
		}
	}
	JOINT LowerBack
	{
		OFFSET 0 0 0
		CHANNELS 3 Zrotation Yrotation Xrotation
		JOINT Spine
		{
			OFFSET -0.03138 2.03983 -0.23106
			CHANNELS 3 Zrotation Yrotation Xrotation
			JOINT Spine1
			{
				OFFSET -0.00325 2.06238 -0.06878
				CHANNELS 3 Zrotation Yrotation Xrotation
				JOINT Neck
				{
					OFFSET 0 0 0
					CHANNELS 3 Zrotation Yrotation Xrotation
					JOINT Neck1
					{
						OFFSET -0.00002 1.75318 0.18090
						CHANNELS 3 Zrotation Yrotation Xrotation
						JOINT Head
						{
							OFFSET 0.08806 1.75856 -0.25387
							CHANNELS 3 Zrotation Yrotation Xrotation
							End Site
							{
								OFFSET 0.02554 1.78597 -0.10684
							}
						}
					}
				}
				JOINT LeftShoulder
				{
					OFFSET 0 0 0
					CHANNELS 3 Zrotation Yrotation Xrotation
					JOINT LeftArm
					{
						OFFSET 3.09657 1.33597 -0.04414
						CHANNELS 3 Zrotation Yrotation Xrotation
						JOINT LeftForeArm
						{
							OFFSET 5.34298 -0.00000 -0.00000
							CHANNELS 3 Zrotation Yrotation Xrotation
							JOINT LeftHand
							{
								OFFSET 3.67262 -0.00000 -0.00000
								CHANNELS 3 Zrotation Yrotation Xrotation
								JOINT LeftFingerBase
								{
									OFFSET 0 0 0
									CHANNELS 3 Zrotation Yrotation Xrotation
									JOINT LeftHandIndex1
									{
										OFFSET 0.59930 -0.00000 -0.00000
										CHANNELS 3 Zrotation Yrotation Xrotation
										End Site
										{
											OFFSET 0.48317 -0.00000 -0.00000
										}
									}
								}
								JOINT LThumb
								{
									OFFSET 0 0 0
									CHANNELS 3 Zrotation Yrotation Xrotation
									End Site
									{
										OFFSET 0.49055 -0.00000 0.49055
									}
								}
							}
						}
					}
				}
				JOINT RightShoulder
				{
					OFFSET 0 0 0
					CHANNELS 3 Zrotation Yrotation Xrotation
					JOINT RightArm
					{
						OFFSET -3.16460 1.32273 -0.23382
						CHANNELS 3 Zrotation Yrotation Xrotation
						JOINT RightForeArm
						{
							OFFSET -5.54967 -0.01834 0.03348
							CHANNELS 3 Zrotation Yrotation Xrotation
							JOINT RightHand
							{
								OFFSET -3.69401 -0.00000 0.00000
								CHANNELS 3 Zrotation Yrotation Xrotation
								JOINT RightFingerBase
								{
									OFFSET 0 0 0
									CHANNELS 3 Zrotation Yrotation Xrotation
									JOINT RightHandIndex1
									{
										OFFSET -0.63811 -0.00000 0.00000
										CHANNELS 3 Zrotation Yrotation Xrotation
										End Site
										{
											OFFSET -0.51446 -0.00000 0.00000
										}
									}
								}
								JOINT RThumb
								{
									OFFSET 0 0 0
									CHANNELS 3 Zrotation Yrotation Xrotation
									End Site
									{
										OFFSET -0.52232 -0.00000 0.52232
									}
								}
							}
						}
					}
				}
			}
		}
	}
}
MOTION
Frames: 9
Frame Time: .0083333
9.8341 14.3688 12.2694 164.9640 -41.7571 -143.4990 0.0000 0.0000 0.0000 -0.8097 -15.2389 -87.0123 11.5036 18.1728 64.4063 -0.7430 -15.0847 6.6379 0.2431 3.1727 8.7600 0.0000 0.0000 0.0000 -1.3397 3.4496 -9.0192 -10.6849 -17.7774 61.7540 -1.0869 -11.8658 -27.2527 -2.7109 10.2117 -29.6651 1.2600 -2.5087 24.0747 -1.9084 -3.9897 7.2261 -1.6271 -2.2850 -5.6336 -9.0960 -14.9736 -2.1344 28.5005 -18.7242 -16.6406 9.7002 -10.8529 -0.5554 -0.0000 0.0000 0.0000 -87.8346 -35.7439 94.2325 82.7239 -59.7990 -53.7029 -0.0000 -0.0000 2.9450 44.4868 48.9501 36.5291 -7.1250 0.0000 -0.0000 16.9568 88.0459 16.3776 -0.0000 0.0000 0.0000 53.3841 49.8830 -3.0454 -150.4650 40.4915 -108.8935 0.0000 -0.0000 -14.8448 -11.5443 7.1078 -1.4478 7.1250 -0.0000 -0.0000 11.1319 -22.7615 6.0700
9.7978 14.3534 12.2797 164.9300 -41.5464 -143.8220 0.0000 0.0000 0.0000 -0.5807 -15.4744 -86.9194 11.7119 18.2662 65.0727 -0.7375 -15.0213 6.4389 0.3056 3.5541 9.8255 0.0000 0.0000 0.0000 -1.6593 3.6749 -8.5721 -10.7303 -17.8006 61.9027 -1.2260 -10.9457 -27.4826 -2.4508 9.7480 -28.1644 1.5293 -2.4465 23.8328 -1.9005 -3.8281 7.1097 -1.8255 -2.2009 -5.6471 -8.8704 -14.7731 -0.9495 28.5232 -18.3531 -17.2940 9.8838 -10.7884 -1.0321 -0.0000 -0.0000 0.0000 -87.6482 -35.4391 94.6044 82.4160 -59.7815 -53.4369 -0.0000 -0.0000 2.3712 43.8077 48.7642 35.8044 -7.1250 0.0000 -0.0000 9.6822 87.6307 9.2757 -0.0000 -0.0000 0.0000 52.8703 50.7534 -6.1760 -150.0914 40.8149 -108.6502 0.0000 -0.0000 -17.9851 -13.6452 5.0036 -1.2129 7.1250 -0.0000 -0.0000 9.7256 -24.8287 4.8090
9.7890 14.3038 12.2663 165.1240 -40.9136 -144.1180 0.0000 0.0000 0.0000 -0.7744 -14.8458 -86.9526 11.8836 18.3410 65.6195 -0.7689 -15.3101 6.0348 0.2929 3.4801 9.6184 0.0000 0.0000 0.0000 -1.6276 4.8512 -8.0746 -10.7916 -17.8316 62.1029 -1.2414 -11.1496 -27.7608 -2.3672 9.5924 -27.6667 1.1381 -2.3677 23.4173 -1.6865 -3.8200 7.2673 -1.3972 -2.2033 -5.2292 -9.4844 -14.5949 -1.8414 28.6133 -18.1747 -17.0679 9.9187 -10.6207 -0.7686 -0.0000 -0.0000 0.0000 -87.7977 -35.3218 93.5349 82.7112 -59.7983 -53.6920 -0.0000 -0.0000 2.4199 42.9911 48.8140 35.0523 -7.1250 0.0000 -0.0000 1.7203 87.3579 1.6392 -0.0000 -0.0000 0.0000 52.4689 52.6654 -8.4164 -149.0259 41.7139 -107.9474 0.0000 -0.0000 -22.2907 -17.1910 7.1372 -2.2013 7.1250 -0.0000 -0.0000 7.0177 -22.5294 3.8212
9.7584 14.2575 12.2958 164.8550 -40.6837 -144.5100 0.0000 0.0000 0.0000 -0.8553 -15.1322 -86.7853 12.0969 18.4313 66.2955 -0.7583 -15.2053 5.7950 0.4254 4.1861 11.6008 0.0000 0.0000 0.0000 -1.5225 6.1383 -6.8661 -10.7984 -17.8350 62.1252 -1.1092 -12.3562 -27.8474 -2.4674 9.7784 -28.2621 1.6193 -2.3918 23.9216 -1.8583 -3.7594 7.2201 -1.8497 -2.1777 -5.5690 -8.8688 -14.6266 -1.9708 28.3488 -18.2221 -16.9975 9.7298 -10.6434 -0.8210 -0.0000 -0.0000 0.0000 -89.0044 -37.9582 97.1781 80.4578 -59.6531 -51.7459 -0.0000 0.0000 -0.1704 46.1116 51.1083 38.9776 -7.1250 0.0000 -0.0000 163.1850 -89.2013 -163.4176 -0.0000 -0.0000 0.0000 52.2583 53.4543 -12.0442 -148.5319 42.1190 -107.6174 0.0000 -0.0000 -25.5105 -16.0042 6.1679 -1.7651 7.1250 -0.0000 -0.0000 7.9197 -23.5762 4.1291
9.7247 14.2763 12.3009 164.9540 -40.3944 -144.8020 0.0000 0.0000 0.0000 -1.0244 -15.0951 -86.3853 12.1975 18.4729 66.6135 -0.7782 -15.4003 5.3554 0.3563 3.8348 10.6123 0.0000 0.0000 0.0000 -2.5236 4.9278 -7.2615 -10.7681 -17.8197 62.0261 -1.0783 -11.4038 -26.7858 -2.6320 10.0741 -29.2170 2.2429 -1.7927 23.9814 -2.2694 -2.8378 6.9589 -2.9106 -1.7246 -5.8829 -6.3789 -15.0057 -0.7969 27.6575 -18.5501 -17.7710 9.3172 -10.9996 -1.5561 -0.0000 0.0000 0.0000 -88.7799 -37.5978 101.2789 79.4777 -59.5775 -50.9003 -0.0000 0.0000 -0.9483 50.3640 44.3629 40.1680 -7.1250 0.0000 -0.0000 56.9256 84.4287 52.1196 -0.0000 0.0000 0.0000 51.9918 52.4127 -16.2644 -148.2556 42.3425 -107.4317 0.0000 -0.0000 -30.9067 -17.9171 7.7823 -2.5069 7.1250 -0.0000 -0.0000 6.4757 -21.8253 3.6267
9.6792 14.2864 12.3052 165.1050 -40.1902 -145.1320 0.0000 0.0000 0.0000 -0.8774 -15.1505 -86.2634 12.3504 18.5349 67.0954 -0.7692 -15.3277 4.9259 0.2849 3.4327 9.4858 0.0000 0.0000 0.0000 -2.6347 5.1962 -6.8407 -10.7131 -17.7918 61.8463 -1.0800 -11.2048 -26.6268 -2.6154 10.0448 -29.1221 2.4194 -2.3195 24.0261 -2.0058 -3.4599 6.9568 -2.5418 -2.0280 -5.9428 -7.0113 -14.6274 -2.1223 27.2957 -18.2496 -16.7703 9.1280 -10.6546 -1.0678 0.0000 -0.0000 0.0000 -88.1404 -37.3451 99.6129 79.0139 -59.5390 -50.5005 -0.0000 0.0000 -1.0246 51.3787 41.8437 39.8628 -7.1250 0.0000 -0.0000 52.4972 82.2358 46.0538 0.0000 -0.0000 0.0000 52.7393 54.2106 -16.5317 -147.6199 42.8481 -107.0014 0.0000 -0.0000 -35.4215 -17.8139 8.4860 -2.7148 7.1250 -0.0000 -0.0000 6.5410 -21.0977 3.7723
9.6454 14.2757 12.3154 165.1850 -39.8811 -145.4120 0.0000 0.0000 0.0000 -0.8785 -15.1410 -86.0889 12.4688 18.5819 67.4673 -0.7602 -15.2631 4.5043 0.2947 3.4907 9.6481 0.0000 0.0000 0.0000 -2.8329 5.5671 -6.4496 -10.6754 -17.7725 61.7228 -1.1009 -10.9484 -26.5656 -2.5831 9.9874 -28.9359 2.5617 -2.5022 24.1251 -1.8751 -3.6477 6.8959 -2.4202 -2.1200 -6.0704 -7.0755 -14.4257 -2.9539 26.8993 -18.0895 -16.1594 8.9202 -10.4587 -0.8217 0.0000 0.0000 0.0000 -87.5549 -36.7923 98.3941 79.5799 -59.5857 -50.9885 -0.0000 0.0000 -0.9852 50.8995 41.0806 38.9580 -7.1250 0.0000 -0.0000 47.7708 81.4872 41.1235 0.0000 0.0000 0.0000 53.1647 54.9760 -17.5689 -147.0115 43.3212 -106.5858 0.0000 -0.0000 -39.5083 -17.4221 8.5803 -2.6805 7.1250 -0.0000 -0.0000 6.8223 -21.0208 3.9487
9.6197 14.2623 12.3245 165.1390 -39.4900 -145.5950 0.0000 0.0000 0.0000 -1.0313 -15.0651 -85.9604 12.6146 18.6385 67.9240 -0.7586 -15.2825 4.0782 0.3494 3.7978 10.5085 0.0000 0.0000 0.0000 -3.1134 5.9136 -6.1328 -10.6572 -17.7632 61.6634 -1.0567 -11.2618 -26.5012 -2.5860 9.9926 -28.9528 2.3897 -2.0144 24.1999 -1.8271 -3.0140 6.5920 -2.4470 -1.8051 -6.3909 -5.7573 -14.5035 -1.4510 26.2856 -18.0124 -17.0990 8.7730 -10.5844 -1.5792 0.0000 0.0000 0.0000 -87.4740 -35.6134 99.3374 80.4335 -59.6514 -51.7249 -0.0000 0.0000 -0.8944 50.7152 40.3849 38.3803 -7.1250 0.0000 -0.0000 45.1948 80.7998 38.2677 0.0000 0.0000 0.0000 52.4148 53.8989 -20.4039 -146.5268 43.6907 -106.2521 0.0000 -0.0000 -43.8078 -17.4831 7.9144 -2.4834 7.1250 -0.0000 -0.0000 6.7886 -21.7092 3.8224
9.5907 14.2495 12.3242 165.2960 -39.2552 -145.9410 0.0000 0.0000 0.0000 -1.0128 -14.9354 -85.8039 12.7545 18.6917 68.3612 -0.7590 -15.3133 3.8186 0.4249 4.1833 11.5929 0.0000 0.0000 0.0000 -2.7786 6.7370 -5.4727 -10.6201 -17.7441 61.5415 -0.9237 -12.2941 -26.4174 -2.6122 10.0390 -29.1033 2.1205 -2.6039 24.3288 -1.3399 -3.8109 6.6171 -1.5211 -2.1905 -6.4295 -6.7668 -13.9759 -2.5740 26.0364 -17.4740 -16.3636 8.7372 -10.1551 -1.1838 0.0000 -0.0000 0.0000 -87.1687 -34.9897 95.0662 83.5943 -59.8444 -54.4554 -0.0000 0.0000 -0.4825 48.0949 49.9881 40.4798 -7.1250 0.0000 -0.0000 116.0765 -88.4617 -117.4668 0.0000 -0.0000 0.0000 52.8581 55.6488 -19.4546 -146.0302 44.0623 -105.9080 0.0000 -0.0000 -47.5709 -17.4462 6.2495 -1.9593 7.1250 -0.0000 -0.0000 6.8542 -23.4410 3.5867
